<svg width="40" height="40" viewBox="0 0 40 40" fill="none" xmlns="http://www.w3.org/2000/svg">
<path d="M20 15.8666C19.1825 15.8666 18.3833 16.109 17.7036 16.5632C17.0239 17.0174 16.4941 17.6629 16.1813 18.4182C15.8684 19.1734 15.7866 20.0045 15.9461 20.8063C16.1056 21.6081 16.4992 22.3446 17.0773 22.9226C17.6553 23.5007 18.3918 23.8943 19.1936 24.0538C19.9954 24.2133 20.8265 24.1315 21.5817 23.8186C22.337 23.5058 22.9825 22.976 23.4367 22.2963C23.8909 21.6166 24.1333 20.8174 24.1333 19.9999C24.1333 19.4571 24.0264 18.9196 23.8187 18.4182C23.611 17.9167 23.3065 17.461 22.9227 17.0772C22.5389 16.6934 22.0832 16.3889 21.5817 16.1812C21.0803 15.9735 20.5428 15.8666 20 15.8666V15.8666ZM36.55 11.7833C36.5412 10.4962 36.3042 9.22087 35.85 8.01659C35.5155 7.13535 34.9979 6.33508 34.3313 5.66856C33.6648 5.00205 32.8645 4.48445 31.9833 4.14992C30.779 3.69569 29.5037 3.45869 28.2166 3.44992C26.0666 3.33325 25.4333 3.33325 20 3.33325C14.5666 3.33325 13.9333 3.33325 11.7833 3.44992C10.4962 3.45869 9.22093 3.69569 8.01665 4.14992C7.13541 4.48445 6.33514 5.00205 5.66862 5.66856C5.00211 6.33508 4.48451 7.13535 4.14998 8.01659C3.69575 9.22087 3.45875 10.4962 3.44998 11.7833C3.33331 13.9333 3.33331 14.5666 3.33331 19.9999C3.33331 25.4333 3.33331 26.0666 3.44998 28.2166C3.46792 29.5082 3.7046 30.7874 4.14998 31.9999C4.48303 32.8771 5.00019 33.6728 5.66665 34.3333C6.3303 35.0038 7.1323 35.5214 8.01665 35.8499C9.22093 36.3041 10.4962 36.5412 11.7833 36.5499C13.9333 36.6666 14.5666 36.6666 20 36.6666C25.4333 36.6666 26.0666 36.6666 28.2166 36.5499C29.5037 36.5412 30.779 36.3041 31.9833 35.8499C32.8677 35.5214 33.6697 35.0038 34.3333 34.3333C34.9998 33.6728 35.5169 32.8771 35.85 31.9999C36.3038 30.7897 36.5407 29.509 36.55 28.2166C36.6666 26.0666 36.6666 25.4333 36.6666 19.9999C36.6666 14.5666 36.6666 13.9333 36.55 11.7833V11.7833ZM32.3166 25.1166C32.2632 26.1451 32.0437 27.1582 31.6666 28.1166C31.3431 28.9161 30.8621 29.6423 30.2522 30.2522C29.6424 30.862 28.9161 31.343 28.1166 31.6666C27.1492 32.0226 26.1304 32.2196 25.1 32.2499C23.7833 32.2499 23.4333 32.2499 20 32.2499C16.5666 32.2499 16.2166 32.2499 14.9 32.2499C13.8695 32.2196 12.8508 32.0226 11.8833 31.6666C11.0568 31.3595 10.3104 30.8695 9.69998 30.2333C9.09609 29.6353 8.62972 28.913 8.33331 28.1166C7.97591 27.1501 7.78432 26.1302 7.76665 25.0999C7.76665 23.7833 7.76665 23.4333 7.76665 19.9999C7.76665 16.5666 7.76665 16.2166 7.76665 14.8999C7.78432 13.8696 7.97591 12.8497 8.33331 11.8833C8.64045 11.0568 9.13044 10.3104 9.76665 9.69992C10.3672 9.09929 11.0888 8.63341 11.8833 8.33325C12.8508 7.97726 13.8695 7.78027 14.9 7.74992V7.74992C16.2166 7.74992 16.5666 7.74992 20 7.74992C23.4333 7.74992 23.7833 7.74992 25.1 7.74992C26.1304 7.78027 27.1492 7.97726 28.1166 8.33325C28.9431 8.64039 29.6895 9.13038 30.3 9.76659C30.9039 10.3645 31.3702 11.0868 31.6666 11.8833C32.0226 12.8507 32.2196 13.8695 32.25 14.8999C32.25 16.2166 32.25 16.5666 32.25 19.9999C32.25 23.4333 32.3666 23.7833 32.3166 25.0999V25.1166ZM29.65 12.7166C29.4515 12.1782 29.1387 11.6893 28.733 11.2836C28.3272 10.8779 27.8383 10.565 27.3 10.3666C26.5608 10.1104 25.7822 9.98624 25 9.99992C23.7 9.99992 23.3333 9.99992 20 9.99992C16.6666 9.99992 16.3 9.99992 15 9.99992C14.2138 10.0076 13.4351 10.1543 12.7 10.4333C12.1699 10.6227 11.6861 10.9228 11.281 11.3136C10.8758 11.7044 10.5584 12.177 10.35 12.6999C10.1079 13.4422 9.98969 14.2192 9.99998 14.9999C9.99998 16.2999 9.99998 16.6666 9.99998 19.9999C9.99998 23.3333 9.99998 23.6999 9.99998 24.9999C10.0165 25.7852 10.1629 26.5624 10.4333 27.2999C10.6318 27.8383 10.9446 28.3272 11.3503 28.7329C11.7561 29.1386 12.245 29.4515 12.7833 29.6499C13.4944 29.9114 14.2427 30.0577 15 30.0833V30.0833C16.3 30.0833 16.6666 30.0833 20 30.0833C23.3333 30.0833 23.7 30.0833 25 30.0833C25.7862 30.0756 26.5649 29.9289 27.3 29.6499C27.8383 29.4515 28.3272 29.1386 28.733 28.7329C29.1387 28.3272 29.4515 27.8383 29.65 27.2999C29.9289 26.5648 30.0756 25.7861 30.0833 24.9999C30.0833 23.6999 30.0833 23.3333 30.0833 19.9999C30.0833 16.6666 30.0833 16.2999 30.0833 14.9999C30.0838 14.2129 29.9368 13.4328 29.65 12.6999V12.7166ZM20 26.3666C19.1647 26.3666 18.3376 26.2018 17.5661 25.8816C16.7946 25.5615 16.0938 25.0922 15.5039 24.5008C14.9141 23.9094 14.4467 23.2074 14.1286 22.4351C13.8104 21.6627 13.6478 20.8352 13.65 19.9999V19.9999C13.65 18.74 14.0238 17.5084 14.7241 16.4611C15.4244 15.4137 16.4198 14.5977 17.5841 14.1163C18.7484 13.6349 20.0294 13.5098 21.2649 13.7568C22.5003 14.0038 23.6347 14.6119 24.5245 15.5039C25.4142 16.396 26.0192 17.532 26.263 18.7681C26.5068 20.0042 26.3783 21.2848 25.8939 22.4479C25.4094 23.611 24.5908 24.6042 23.5416 25.3017C22.4925 25.9993 21.2599 26.3699 20 26.3666V26.3666ZM26.6666 14.8833C26.2982 14.8443 25.9573 14.6703 25.7095 14.3949C25.4617 14.1195 25.3245 13.7621 25.3245 13.3916C25.3245 13.0211 25.4617 12.6637 25.7095 12.3883C25.9573 12.1129 26.2982 11.9389 26.6666 11.8999V11.8999C27.0351 11.9389 27.376 12.1129 27.6238 12.3883C27.8716 12.6637 28.0088 13.0211 28.0088 13.3916C28.0088 13.7621 27.8716 14.1195 27.6238 14.3949C27.376 14.6703 27.0351 14.8443 26.6666 14.8833Z" fill="white"/>
</svg>
